Coordinates
version=1
nRows=24
nColumns=22
inDegrees=yes

Units are S.I. units (second, meters, Newtons, ...)
If the header above contains a line with 'inDegrees', this indicates whether rotational values are in degrees (yes) or radians (no).

endheader
time	pelvis_tilt	pelvis_list	pelvis_rotation	pelvis_tx	pelvis_ty	pelvis_tz	hip_flexion_r	hip_adduction_r	hip_rotation_r	knee_angle_r	ankle_angle_r	subtalar_angle_r	hip_flexion_l	hip_adduction_l	hip_rotation_l	knee_angle_l	ankle_angle_l	subtalar_angle_l	lumbar_extension	lumbar_bending	lumbar_rotation
      1.60000000	     -2.69756268	     -1.89482744	     -3.35348417	     -1.10165481	      1.01614279	     -0.23210229	      0.06923079	      7.24609398	     -7.12964306	    -10.56371466	     12.90339406	     -5.05722438	     25.98988742	     -3.52239149	     -0.66007056	    -27.74025783	      9.78888184	      3.71182252	    -15.66640915	      0.37097864	      6.81816412
      1.61000000	     -2.76054968	     -1.86296433	     -3.38112730	     -1.09857851	      1.01571240	     -0.23220621	     -0.06076508	      7.19283089	     -7.06262504	    -10.55906183	     13.05077198	     -4.97512571	     26.09445402	     -3.42875990	     -0.57697911	    -26.63855332	      9.61689665	      3.88420904	    -15.62258728	      0.35180100	      6.80704708
      1.62000000	     -2.76462889	     -1.83552324	     -3.42381662	     -1.09535043	      1.01535394	     -0.23231847	     -0.26424858	      7.13380459	     -7.02478453	    -10.55314662	     13.24251531	     -4.78259426	     26.10072833	     -3.34362503	     -0.51951727	    -25.51964984	      9.48538478	      4.20257116	    -15.63853825	      0.32639885	      6.84822720
      1.63000000	     -2.79756736	     -1.80737306	     -3.47536138	     -1.09202886	      1.01491700	     -0.23244751	     -0.43315636	      7.07441513	     -6.95360545	    -10.56632168	     13.42627578	     -4.66261622	     26.11476691	     -3.25778088	     -0.45341932	    -24.39838032	      9.33444621	      4.41677200	    -15.61298955	      0.30203020	      6.87281500
      1.64000000	     -2.85291041	     -1.78562516	     -3.52986788	     -1.08859785	      1.01441599	     -0.23259525	     -0.59129410	      7.02350012	     -6.84367516	    -10.56888114	     13.59952786	     -4.58154483	     26.13316523	     -3.17931112	     -0.38118225	    -23.28622632	      9.16735895	      4.57073987	    -15.55239920	      0.28578718	      6.87914262
      1.65000000	     -2.83452749	     -1.77568023	     -3.60570075	     -1.08501736	      1.01401533	     -0.23273923	     -0.83671851	      6.97455934	     -6.74534667	    -10.57501962	     13.79116749	     -4.40260357	     26.03854465	     -3.11964998	     -0.33830194	    -22.17463899	      9.04471226	      4.80516247	    -15.57064426	      0.27189429	      6.93401842
      1.66000000	     -2.88118185	     -1.77381926	     -3.67639482	     -1.08134545	      1.01347239	     -0.23289213	     -1.02034416	      6.94123095	     -6.60550054	    -10.57770619	     13.96590573	     -4.31495092	     26.01158787	     -3.07136740	     -0.29173023	    -21.10714443	      8.87499972	      4.93203437	    -15.50165865	      0.27075541	      6.94318801
      1.67000000	     -2.88485088	     -1.77563089	     -3.76606412	     -1.07752958	      1.01297690	     -0.23303893	     -1.25436400	      6.90392040	     -6.47207881	    -10.58995866	     14.15481217	     -4.18376851	     25.91376583	     -3.03631096	     -0.29126328	    -20.06223063	      8.72857492	      5.07134576	    -15.47227630	      0.26465283	      6.97727820
      1.68000000	     -2.88137415	     -1.79128756	     -3.86475186	     -1.07358698	      1.01246437	     -0.23319896	     -1.50153257	      6.87660269	     -6.33876471	    -10.60799362	     14.33791505	     -4.04296285	     25.79718057	     -3.02109024	     -0.31981919	    -19.06382617	      8.60280129	      5.19329193	    -15.44336173	      0.27350296	      7.01316281
      1.69000000	     -2.87069090	     -1.81589686	     -3.97066779	     -1.06950376	      1.01193463	     -0.23336252	     -1.75883496	      6.85534727	     -6.20958948	    -10.63897786	     14.52220948	     -3.89639893	     25.66048741	     -3.02101777	     -0.39006561	    -18.11471411	      8.49966915	      5.29851976	    -15.40958874	      0.28681526	      7.04961997
      1.70000000	     -2.85061655	     -1.84712295	     -4.08733284	     -1.06528014	      1.01139457	     -0.23355170	     -2.02937795	      6.83465136	     -6.07943662	    -10.68223216	     14.70714322	     -3.73999813	     25.50004368	     -3.03207777	     -0.50602188	    -17.21541826	      8.42132732	      5.39361970	    -15.37623690	      0.30842732	      7.08478151
      1.71000000	     -2.82199367	     -1.89077792	     -4.21469570	     -1.06091343	      1.01084203	     -0.23375886	     -2.31206557	      6.82203477	     -5.95266484	    -10.73838785	     14.88891254	     -3.57132011	     25.31368199	     -3.05818813	     -0.65926630	    -16.36533069	      8.37882882	      5.48371946	    -15.34099894	      0.34135508	      7.12634505
      1.72000000	     -2.79027996	     -1.94822423	     -4.34837000	     -1.05642066	      1.01026513	     -0.23399049	     -2.59808006	      6.81826164	     -5.82393065	    -10.81224104	     15.06506101	     -3.39611673	     25.11186128	     -3.10044969	     -0.84926705	    -15.57263374	      8.36851767	      5.56834788	    -15.30201591	      0.38601011	      7.16762903
      1.73000000	     -2.75993536	     -2.01899565	     -4.49505272	     -1.05178745	      1.00965607	     -0.23425450	     -2.88179790	      6.82262381	     -5.68273052	    -10.90911661	     15.23892381	     -3.22160085	     24.89505554	     -3.15740464	     -1.06900604	    -14.83814055	      8.38654274	      5.64302842	    -15.24970498	      0.44980855	      7.20692080
      1.74000000	     -2.72720557	     -2.10273287	     -4.65972045	     -1.04701831	      1.00902155	     -0.23454679	     -3.16568495	      6.83222990	     -5.52912383	    -11.03074129	     15.40829885	     -3.04209168	     24.65645896	     -3.23000071	     -1.30942166	    -14.16414951	      8.43374956	      5.70292993	    -15.19000840	      0.52873206	      7.25499924
      1.75000000	     -2.69561602	     -2.19832134	     -4.83760657	     -1.04212055	      1.00835393	     -0.23485144	     -3.44778417	      6.84915289	     -5.35334453	    -11.17328272	     15.57656245	     -2.86377778	     24.40295542	     -3.31733691	     -1.57517206	    -13.55887718	      8.49397829	      5.73622448	    -15.11928918	      0.61379629	      7.30522922
      1.76000000	     -2.65657296	     -2.29956574	     -5.03524716	     -1.03708944	      1.00767411	     -0.23519474	     -3.73573675	      6.86173618	     -5.15403153	    -11.33787568	     15.73682878	     -2.67059281	     24.12021702	     -3.41212322	     -1.85902635	    -13.02379412	      8.55419026	      5.73230245	    -15.04951817	      0.70841938	      7.36317100
      1.77000000	     -2.61291106	     -2.40575453	     -5.24692559	     -1.03193274	      1.00697776	     -0.23556693	     -4.02710283	      6.87065209	     -4.94209629	    -11.52294580	     15.88815683	     -2.46453824	     23.81555804	     -3.51184027	     -2.13952924	    -12.56927148	      8.58620041	      5.67392732	    -14.97593067	      0.80632362	      7.41728525
      1.78000000	     -2.58838776	     -2.51319956	     -5.46820296	     -1.02664468	      1.00623203	     -0.23595600	     -4.30541275	      6.87933041	     -4.69177523	    -11.71069000	     16.05090081	     -2.28424838	     23.51506586	     -3.61458441	     -2.42422238	    -12.19877533	      8.55537138	      5.56782889	    -14.86796887	      0.90197114	      7.47600890
      1.79000000	     -2.54499254	     -2.61115341	     -5.69855828	     -1.02123463	      1.00552059	     -0.23639312	     -4.60059970	      6.86609034	     -4.43198443	    -11.91765448	     16.19416301	     -2.06199482	     23.17697595	     -3.70312815	     -2.70000014	    -11.90941394	      8.42068674	      5.38380991	    -14.77491263	      0.98716094	      7.52359411
      1.80000000	     -2.49780149	     -2.69592275	     -5.92620893	     -1.01570411	      1.00483098	     -0.23688459	     -4.89908099	      6.83133161	     -4.17295056	    -12.13477307	     16.32585176	     -1.81659278	     22.82228591	     -3.77014511	     -2.94897787	    -11.70161276	      8.13605930	      5.12581295	    -14.67673495	      1.05813469	      7.54350069
      1.81000000	     -2.41114707	     -2.77077168	     -6.12680265	     -1.01007235	      1.00422645	     -0.23747641	     -5.23418258	      6.77442981	     -3.94332689	    -12.36937524	     16.45554026	     -1.49634199	     22.43787329	     -3.80737527	     -3.17092908	    -11.60248246	      7.68973343	      4.71898717	    -14.62204192	      1.12154710	      7.50914717
      1.82000000	     -2.34968827	     -2.81057652	     -6.31553633	     -1.00431815	      1.00364520	     -0.23812293	     -5.54645974	      6.68019570	     -3.70456691	    -12.59609162	     16.56473924	     -1.20867271	     22.07385931	     -3.80044149	     -3.35620145	    -11.56044140	      7.02336678	      4.31972673	    -14.52024208	      1.14778925	      7.45040962
      1.83000000	     -2.27699953	     -2.80645225	     -6.47486745	     -0.99847665	      1.00315791	     -0.23885692	     -5.85625789	      6.53510067	     -3.47937667	    -12.84347394	     16.64285589	     -0.91014972	     21.70988726	     -3.73065751	     -3.49297013	    -11.58283695	      6.15970177	      3.90379103	    -14.42298471	      1.12615675	      7.34042519
